<svg xmlns="http://www.w3.org/2000/svg" width="36" height="34.411" viewBox="0 0 36 34.411">
  <path d="M197.2,150.458V127.242h-7.714v23.216Zm-3.856-26.388a4.3,4.3,0,1,0-.052,0Z" transform="translate(-189.028 -116.047)" fill-rule="evenodd"/>
  <path d="M195.23,145.117h7.718V132.153a5.183,5.183,0,0,1,.255-1.884,4.217,4.217,0,0,1,3.956-2.823c2.793,0,3.91,2.129,3.91,5.25v12.421h7.718V131.806c0-7.134-3.81-10.451-8.886-10.451a7.689,7.689,0,0,0-7.006,3.91h.052V121.9H195.23c.1,2.177,0,23.216,0,23.216Z" transform="translate(-182.787 -110.706)" fill-rule="evenodd"/>
</svg>
