<svg xmlns="http://www.w3.org/2000/svg" width="36" height="36" viewBox="0 0 36 36">
  <path d="M349.849,43.849a18,18,0,0,0-7.226,34.486,15.832,15.832,0,0,1,.314-4.132c.346-1.463,2.316-9.809,2.316-9.809a6.918,6.918,0,0,1-.574-2.848c0-2.667,1.546-4.66,3.47-4.66a2.411,2.411,0,0,1,2.429,2.7c0,1.646-1.05,4.109-1.591,6.389a2.787,2.787,0,0,0,2.842,3.467c3.41,0,5.706-4.38,5.706-9.57,0-3.945-2.656-6.9-7.49-6.9a8.523,8.523,0,0,0-8.861,8.62,5.2,5.2,0,0,0,1.186,3.53.872.872,0,0,1,.259,1c-.087.332-.285,1.128-.367,1.445a.62.62,0,0,1-.9.45c-2.516-1.027-3.686-3.782-3.686-6.878,0-5.112,4.312-11.244,12.865-11.244,6.873,0,11.395,4.974,11.395,10.311,0,7.061-3.924,12.336-9.712,12.336a5.161,5.161,0,0,1-4.4-2.243s-1.044,4.148-1.266,4.947a15.015,15.015,0,0,1-1.812,3.857,18,18,0,1,0,5.1-35.262Z" transform="translate(-331.849 -43.849)"/>
</svg>
